<?xml version="1.0" encoding="UTF-8"?>
<svg xmlns="http://www.w3.org/2000/svg" xmlns:xlink="http://www.w3.org/1999/xlink" width="400px" height="400px" viewBox="0 0 400 400" version="1.1">
<g id="surface1">
<path style="fill:none;stroke-width:2;stroke-linecap:butt;stroke-linejoin:miter;stroke:rgb(50.196078%,50.196078%,50.196078%);stroke-opacity:1;stroke-miterlimit:4;" d="M 77.799668 45.960332 C 77.799668 28.364629 63.535596 14.099668 45.939893 14.099668 C 28.344189 14.099668 14.080117 28.364629 14.080117 45.960332 C 14.080117 63.556035 28.344189 77.820107 45.939893 77.820107 C 63.535596 77.820107 77.799668 63.556035 77.799668 45.960332 " transform="matrix(4.395604,0,0,4.395604,0,0)"/>
<path style="fill:none;stroke-width:2;stroke-linecap:butt;stroke-linejoin:miter;stroke:rgb(50.196078%,50.196078%,50.196078%);stroke-opacity:1;stroke-miterlimit:4;" d="M 59.969355 55.57665 C 65.353818 48.879619 64.290078 39.084678 57.593047 33.700215 L 55.426465 31.958418 C 48.729434 26.573066 38.934492 27.637695 33.550029 34.334727 L 31.870439 36.423105 C 26.485977 43.121025 27.549717 52.915078 34.246748 58.299541 L 36.41333 60.042227 C 43.11125 65.426689 52.905303 64.362061 58.289766 57.665029 L 59.969355 55.57665 " transform="matrix(4.395604,0,0,4.395604,0,0)"/>
<path style="fill:none;stroke-width:2;stroke-linecap:butt;stroke-linejoin:miter;stroke:rgb(50.196078%,50.196078%,50.196078%);stroke-opacity:1;stroke-miterlimit:4;" d="M 46.386006 53.898838 C 50.423242 53.962822 53.75043 50.490781 53.818857 46.145176 C 53.887285 41.798682 50.670293 38.224443 46.633945 38.161348 C 42.596709 38.097363 39.269521 41.569404 39.201094 45.91501 C 39.132666 50.261504 42.349658 53.835742 46.386006 53.898838 " transform="matrix(4.395604,0,0,4.395604,0,0)"/>
<path style=" stroke:none;fill-rule:nonzero;fill:rgb(0%,0%,0%);fill-opacity:1;" d="M 78.066406 378.855469 C 63.53125 371.414062 50.242188 360.570312 38.199219 346.328125 C 18.328125 322.8125 15.339844 302.460938 15.253906 271.121094 C 15.253906 261.671875 11.339844 252.96875 11.296875 242.855469 C 11.121094 210.445312 11.105469 178.023438 11.253906 145.582031 C 11.296875 137.757812 15.03125 131.78125 15.078125 124.351562 C 15.515625 45.671875 74.503906 14.023438 144.835938 11.957031 C 178.945312 10.929688 213.085938 10.988281 247.253906 12.132812 C 251.910156 12.308594 257.320312 15.734375 263.515625 15.734375 C 271.78125 15.675781 280.03125 15.75 288.265625 15.957031 C 299.648438 16.21875 310.152344 20 321.363281 22.460938 C 338.550781 26.199219 369.320312 57.800781 376.96875 74.066406 C 387.867188 97.273438 389.625 116.703125 388.570312 143.824219 C 388.175781 153.714844 392.351562 160.570312 392.703125 169.671875 C 393.582031 192.878906 394.199219 217.011719 391.253906 240.042969 C 386.023438 281.097656 394.417969 317.273438 362.503906 350.375 C 350.902344 362.417969 342.328125 371.867188 329.1875 378.375 C 319.648438 383.078125 308.308594 384.132812 297.144531 386.636719 C 281.273438 390.199219 262.59375 388.835938 246.375 388.660156 C 238.417969 388.617188 233.011719 392.878906 225.496094 393.011719 C 195.691406 393.539062 166.769531 394.503906 137.1875 389.933594 C 115.296875 386.550781 101.40625 390.8125 78.066406 378.855469 Z M 341.976562 202.023438 C 341.976562 124.679688 279.277344 61.976562 201.933594 61.976562 C 124.589844 61.976562 61.890625 124.679688 61.890625 202.023438 C 61.890625 279.367188 124.589844 342.066406 201.933594 342.066406 C 279.277344 342.066406 341.976562 279.367188 341.976562 202.023438 Z M 341.976562 202.023438 "/>
<path style=" stroke:none;fill-rule:nonzero;fill:rgb(100%,100%,100%);fill-opacity:1;" d="M 341.976562 202.023438 C 341.976562 279.367188 279.277344 342.066406 201.933594 342.066406 C 124.589844 342.066406 61.890625 279.367188 61.890625 202.023438 C 61.890625 124.679688 124.589844 61.976562 201.933594 61.976562 C 279.277344 61.976562 341.976562 124.679688 341.976562 202.023438 Z M 263.601562 244.292969 C 287.269531 214.855469 282.59375 171.800781 253.15625 148.132812 L 243.632812 140.476562 C 214.195312 116.804688 171.140625 121.484375 147.472656 150.921875 L 140.089844 160.101562 C 116.421875 189.542969 121.097656 232.59375 150.535156 256.261719 L 160.058594 263.921875 C 189.5 287.589844 232.550781 282.910156 256.21875 253.472656 Z M 263.601562 244.292969 "/>
<path style=" stroke:none;fill-rule:nonzero;fill:rgb(0%,0%,0%);fill-opacity:1;" d="M 256.21875 253.472656 C 232.550781 282.910156 189.5 287.589844 160.058594 263.921875 L 150.535156 256.261719 C 121.097656 232.59375 116.421875 189.542969 140.089844 160.101562 L 147.472656 150.921875 C 171.140625 121.484375 214.195312 116.804688 243.632812 140.476562 L 253.15625 148.132812 C 282.59375 171.800781 287.269531 214.855469 263.601562 244.292969 Z M 203.894531 236.917969 C 221.640625 237.199219 236.265625 221.9375 236.566406 202.835938 C 236.867188 183.730469 222.726562 168.019531 204.984375 167.742188 C 187.238281 167.460938 172.613281 182.722656 172.3125 201.824219 C 172.011719 220.929688 186.152344 236.640625 203.894531 236.917969 Z M 203.894531 236.917969 "/>
<path style=" stroke:none;fill-rule:nonzero;fill:rgb(100%,100%,100%);fill-opacity:1;" d="M 203.894531 236.917969 C 221.640625 237.199219 236.265625 221.9375 236.566406 202.835938 C 236.867188 183.730469 222.726562 168.019531 204.984375 167.742188 C 187.238281 167.460938 172.613281 182.722656 172.3125 201.824219 C 172.011719 220.929688 186.152344 236.640625 203.894531 236.917969 Z M 203.894531 236.917969 "/>
</g>
</svg>
